<mxfile host="app.diagrams.net" modified="2023-12-21T08:03:53.276Z" agent="Mozilla/5.0 (Windows NT 10.0; Win64; x64) AppleWebKit/537.36 (KHTML, like Gecko) Chrome/120.0.0.0 Safari/537.36" etag="9KvSLwpx4L5RmwAI76HU" version="22.1.11" type="device">
  <diagram name="Page-1" id="xsvv04bb4XRKdYwWgKeC">
    <mxGraphModel dx="873" dy="1304" grid="1" gridSize="10" guides="1" tooltips="1" connect="1" arrows="1" fold="1" page="1" pageScale="1" pageWidth="850" pageHeight="1100" math="0" shadow="0">
      <root>
        <mxCell id="0" />
        <mxCell id="1" parent="0" />
        <mxCell id="V2m373hzKnzWXpH0OtDa-1" value="" style="ellipse;html=1;shape=startState;fillColor=#000000;strokeColor=#ff0000;" vertex="1" parent="1">
          <mxGeometry x="410" y="40" width="30" height="30" as="geometry" />
        </mxCell>
        <mxCell id="V2m373hzKnzWXpH0OtDa-2" value="" style="edgeStyle=orthogonalEdgeStyle;html=1;verticalAlign=bottom;endArrow=open;endSize=8;strokeColor=#ff0000;rounded=0;" edge="1" source="V2m373hzKnzWXpH0OtDa-1" parent="1">
          <mxGeometry relative="1" as="geometry">
            <mxPoint x="425" y="130" as="targetPoint" />
          </mxGeometry>
        </mxCell>
        <mxCell id="V2m373hzKnzWXpH0OtDa-21" value="" style="edgeStyle=orthogonalEdgeStyle;rounded=0;orthogonalLoop=1;jettySize=auto;html=1;" edge="1" parent="1" source="V2m373hzKnzWXpH0OtDa-4" target="V2m373hzKnzWXpH0OtDa-20">
          <mxGeometry relative="1" as="geometry">
            <Array as="points">
              <mxPoint x="240" y="170" />
            </Array>
          </mxGeometry>
        </mxCell>
        <mxCell id="V2m373hzKnzWXpH0OtDa-22" value="[not logged in]" style="edgeLabel;html=1;align=center;verticalAlign=middle;resizable=0;points=[];" vertex="1" connectable="0" parent="V2m373hzKnzWXpH0OtDa-21">
          <mxGeometry x="-0.0963" y="2" relative="1" as="geometry">
            <mxPoint as="offset" />
          </mxGeometry>
        </mxCell>
        <mxCell id="V2m373hzKnzWXpH0OtDa-4" value="" style="rhombus;whiteSpace=wrap;html=1;" vertex="1" parent="1">
          <mxGeometry x="385" y="130" width="80" height="80" as="geometry" />
        </mxCell>
        <mxCell id="V2m373hzKnzWXpH0OtDa-5" value="" style="endArrow=classic;html=1;rounded=0;exitX=0.5;exitY=1;exitDx=0;exitDy=0;" edge="1" parent="1" source="V2m373hzKnzWXpH0OtDa-4">
          <mxGeometry width="50" height="50" relative="1" as="geometry">
            <mxPoint x="460" y="270" as="sourcePoint" />
            <mxPoint x="425" y="290" as="targetPoint" />
          </mxGeometry>
        </mxCell>
        <mxCell id="V2m373hzKnzWXpH0OtDa-6" value="[logged in]" style="edgeLabel;html=1;align=center;verticalAlign=middle;resizable=0;points=[];" vertex="1" connectable="0" parent="V2m373hzKnzWXpH0OtDa-5">
          <mxGeometry x="-0.14" y="1" relative="1" as="geometry">
            <mxPoint as="offset" />
          </mxGeometry>
        </mxCell>
        <mxCell id="V2m373hzKnzWXpH0OtDa-9" value="" style="edgeStyle=orthogonalEdgeStyle;rounded=0;orthogonalLoop=1;jettySize=auto;html=1;" edge="1" parent="1" source="V2m373hzKnzWXpH0OtDa-7" target="V2m373hzKnzWXpH0OtDa-8">
          <mxGeometry relative="1" as="geometry" />
        </mxCell>
        <mxCell id="V2m373hzKnzWXpH0OtDa-7" value="Select Room" style="rounded=1;whiteSpace=wrap;html=1;" vertex="1" parent="1">
          <mxGeometry x="365" y="290" width="120" height="60" as="geometry" />
        </mxCell>
        <mxCell id="V2m373hzKnzWXpH0OtDa-11" value="" style="edgeStyle=orthogonalEdgeStyle;rounded=0;orthogonalLoop=1;jettySize=auto;html=1;" edge="1" parent="1" source="V2m373hzKnzWXpH0OtDa-8" target="V2m373hzKnzWXpH0OtDa-10">
          <mxGeometry relative="1" as="geometry" />
        </mxCell>
        <mxCell id="V2m373hzKnzWXpH0OtDa-8" value="Fill Up the Booking Form" style="whiteSpace=wrap;html=1;rounded=1;" vertex="1" parent="1">
          <mxGeometry x="365" y="430" width="120" height="60" as="geometry" />
        </mxCell>
        <mxCell id="V2m373hzKnzWXpH0OtDa-13" style="edgeStyle=orthogonalEdgeStyle;rounded=0;orthogonalLoop=1;jettySize=auto;html=1;entryX=0.5;entryY=0;entryDx=0;entryDy=0;" edge="1" parent="1" source="V2m373hzKnzWXpH0OtDa-10" target="V2m373hzKnzWXpH0OtDa-12">
          <mxGeometry relative="1" as="geometry" />
        </mxCell>
        <mxCell id="V2m373hzKnzWXpH0OtDa-10" value="Confirm Booking" style="whiteSpace=wrap;html=1;rounded=1;" vertex="1" parent="1">
          <mxGeometry x="365" y="570" width="120" height="60" as="geometry" />
        </mxCell>
        <mxCell id="V2m373hzKnzWXpH0OtDa-15" value="" style="edgeStyle=orthogonalEdgeStyle;rounded=0;orthogonalLoop=1;jettySize=auto;html=1;" edge="1" parent="1" source="V2m373hzKnzWXpH0OtDa-12">
          <mxGeometry relative="1" as="geometry">
            <mxPoint x="424.9999999999999" y="880" as="targetPoint" />
          </mxGeometry>
        </mxCell>
        <mxCell id="V2m373hzKnzWXpH0OtDa-16" value="[booking successful]" style="edgeLabel;html=1;align=center;verticalAlign=middle;resizable=0;points=[];" vertex="1" connectable="0" parent="V2m373hzKnzWXpH0OtDa-15">
          <mxGeometry x="-0.1714" y="-1" relative="1" as="geometry">
            <mxPoint as="offset" />
          </mxGeometry>
        </mxCell>
        <mxCell id="V2m373hzKnzWXpH0OtDa-25" style="edgeStyle=orthogonalEdgeStyle;rounded=0;orthogonalLoop=1;jettySize=auto;html=1;entryX=0.5;entryY=1;entryDx=0;entryDy=0;" edge="1" parent="1" source="V2m373hzKnzWXpH0OtDa-12" target="V2m373hzKnzWXpH0OtDa-23">
          <mxGeometry relative="1" as="geometry" />
        </mxCell>
        <mxCell id="V2m373hzKnzWXpH0OtDa-27" value="[booking unsuccessful]" style="edgeLabel;html=1;align=center;verticalAlign=middle;resizable=0;points=[];" vertex="1" connectable="0" parent="V2m373hzKnzWXpH0OtDa-25">
          <mxGeometry x="-0.6895" y="3" relative="1" as="geometry">
            <mxPoint as="offset" />
          </mxGeometry>
        </mxCell>
        <mxCell id="V2m373hzKnzWXpH0OtDa-12" value="" style="rhombus;whiteSpace=wrap;html=1;" vertex="1" parent="1">
          <mxGeometry x="385" y="710" width="80" height="80" as="geometry" />
        </mxCell>
        <mxCell id="V2m373hzKnzWXpH0OtDa-29" style="edgeStyle=orthogonalEdgeStyle;rounded=0;orthogonalLoop=1;jettySize=auto;html=1;" edge="1" parent="1" source="V2m373hzKnzWXpH0OtDa-17">
          <mxGeometry relative="1" as="geometry">
            <mxPoint x="420" y="980" as="targetPoint" />
          </mxGeometry>
        </mxCell>
        <mxCell id="V2m373hzKnzWXpH0OtDa-17" value="Redirect to Home" style="rounded=1;whiteSpace=wrap;html=1;" vertex="1" parent="1">
          <mxGeometry x="360" y="880" width="120" height="60" as="geometry" />
        </mxCell>
        <mxCell id="V2m373hzKnzWXpH0OtDa-24" value="" style="edgeStyle=orthogonalEdgeStyle;rounded=0;orthogonalLoop=1;jettySize=auto;html=1;" edge="1" parent="1" source="V2m373hzKnzWXpH0OtDa-20" target="V2m373hzKnzWXpH0OtDa-23">
          <mxGeometry relative="1" as="geometry" />
        </mxCell>
        <mxCell id="V2m373hzKnzWXpH0OtDa-20" value="Login" style="rounded=1;whiteSpace=wrap;html=1;" vertex="1" parent="1">
          <mxGeometry x="180" y="200" width="120" height="60" as="geometry" />
        </mxCell>
        <mxCell id="V2m373hzKnzWXpH0OtDa-23" value="" style="ellipse;whiteSpace=wrap;html=1;rounded=1;" vertex="1" parent="1">
          <mxGeometry x="217.5" y="290" width="45" height="40" as="geometry" />
        </mxCell>
        <mxCell id="V2m373hzKnzWXpH0OtDa-26" style="edgeStyle=orthogonalEdgeStyle;rounded=0;orthogonalLoop=1;jettySize=auto;html=1;entryX=0.018;entryY=0.329;entryDx=0;entryDy=0;entryPerimeter=0;" edge="1" parent="1" source="V2m373hzKnzWXpH0OtDa-23" target="V2m373hzKnzWXpH0OtDa-7">
          <mxGeometry relative="1" as="geometry">
            <mxPoint x="360" y="310" as="targetPoint" />
          </mxGeometry>
        </mxCell>
        <mxCell id="V2m373hzKnzWXpH0OtDa-30" value="" style="ellipse;html=1;shape=endState;fillColor=#000000;strokeColor=#ff0000;" vertex="1" parent="1">
          <mxGeometry x="405" y="980" width="30" height="30" as="geometry" />
        </mxCell>
      </root>
    </mxGraphModel>
  </diagram>
</mxfile>
